<svg xmlns="http://www.w3.org/2000/svg" width="191" height="54" viewBox="0 0 191 54">
    <path fill="#FFF" fill-rule="evenodd" d="M85.95 33.491c.89-.002 1.233.508.88 1.31-.344.78-1.059 1.228-1.874 1.174-.697-.046-1.033-.492-.866-1.15.204-.804.94-1.33 1.86-1.334M17.854 6.277c.398.486.845.78 1.384.866.217.035.613-.087.675-.237.103-.247-.15-.458-.423-.566-.519-.205-1.042-.175-1.636-.063zm.18-3.32c1.293.78 2.64 1.38 4.212 1.32 1.007-.039 1.967-.236 2.782-.856.624-.473.742-1.055.33-1.71-.406-.646-1.016-1.052-1.756-1.26-1.807-.507-4.193.276-5.567 2.507zM23.149 0c.368.1.743.182 1.103.305.644.218 1.2.571 1.625 1.097.735.91.646 1.889-.243 2.655-.673.581-1.47.847-2.366.861-1.75.026-3.343-.483-4.842-1.317-.189-.104-.375-.212-.58-.328-.533.737-.59 1.512-.309 2.323.029.082.177.158.282.178.44.081.89.121 1.328.216.22.048.433.161.623.282.278.177.458.455.339.767-.124.325-.469.364-.787.338a2.93 2.93 0 0 1-1.767-.756c-.205-.184-.397-.213-.663-.15-1.97.473-3.655 1.46-5.185 2.707-1.747 1.424-3.19 3.082-3.992 5.186-.36.942-.6 1.915-.309 2.923.436 1.505 1.596 2.267 3.05 2.685 1.686.485 3.341.232 4.967-.294 1.998-.646 3.74-1.657 4.984-3.354.662-.902 1.078-1.91 1.161-3.005.036-.472-.061-1.019-.288-1.435-.676-1.241-1.766-1.957-3.25-2.004-2.438-.077-4.397.933-5.995 2.618-.786.83-1.435 1.779-2.12 2.71.034-.1.055-.209.106-.3 1.363-2.447 3.257-4.313 6.081-5.139a6.384 6.384 0 0 1 3.433-.06c2.322.605 3.595 2.976 2.858 5.26-.581 1.806-1.864 3.067-3.446 4.084-2.095 1.347-4.426 1.7-6.895 1.599-2.726-.113-4.748-1.314-6.057-3.582-1.237-2.146-.88-4.688.81-6.612C8.19 8.875 9.99 7.882 11.936 7.104c1.576-.63 3.203-1.083 4.962-1.285-.469-1.01-.577-2.016-.014-3.029C15.101 1.777 13.327.85 11.233.78c-.69-.024-1.356.128-1.931.54-.593.425-.869 1.046-.714 1.613.158.581.686.99 1.458 1.022.562.023 1.128-.057 1.692-.09a.356.356 0 0 1 .204.038c-.814.1-1.622.356-2.449.07-1.126-.389-1.457-1.446-.735-2.368.538-.688 1.3-.95 2.154-1.003 1.22-.075 2.386.17 3.499.629.803.33 1.581.72 2.367 1.088.16.075.28.128.431-.045C18.365.958 19.856.254 21.617.054c.048-.005.092-.035.138-.054h1.393zm69.26 44.95c-.083-.058-.14-.105-.202-.142-.586-.34-.835-.841-.826-1.499.012-.779.225-1.5.602-2.177.63-1.13 1.64-1.406 2.581-.786.249-.815.395-1.612.016-2.41-.217-.458-.568-.598-1.08-.483-.912.206-1.563.797-2.167 1.43-1.57 1.646-2.739 3.554-3.688 5.578-.48 1.024-.858 2.103-1.173 3.187-.247.852.43 1.404 1.302 1.153.184-.053.38-.103.537-.204.6-.384 1.218-.75 1.768-1.193.88-.709 1.654-1.526 2.33-2.454m-49.05-7.861c-.04 0-.078-.003-.117 0-.947.051-1.673.551-2.334 1.133-2.178 1.917-3.736 4.27-5.001 6.811a9.613 9.613 0 0 0-.791 2.21c-.212.969.51 1.608 1.48 1.325a7.532 7.532 0 0 0 1.906-.857c1.33-.848 2.345-2.017 3.245-3.273 1.316-1.833 2.403-3.77 2.793-6.009.148-.854-.295-1.356-1.181-1.34m13.945 11.683c.04-.003.13-.003.22-.017.177-.03.354-.06.529-.102 1.34-.333 2.356-1.145 3.259-2.106 1.535-1.633 2.616-3.538 3.46-5.57.37-.886.678-1.798.956-2.715.195-.643-.138-1.067-.813-1.176-.526-.084-1.045-.024-1.494.236-.537.311-1.084.639-1.536 1.051-2.059 1.88-3.555 4.158-4.782 6.601-.373.744-.66 1.54-.88 2.338-.219.799.31 1.47 1.081 1.46m26.768-2.207c-.7.618-1.425 1.308-2.207 1.93-.59.468-1.272.805-2.075.803-1.325-.002-2.154-.736-2.27-2.009-.011-.12-.033-.24-.047-.348-.677.47-1.311.959-1.994 1.373-.981.595-2.038.996-3.228.987-1.792-.012-3.07-1.127-3.247-2.853l-.034-.269c-.168.178-.282.301-.4.421-1.048 1.065-2.17 2.042-3.692 2.41a4.121 4.121 0 0 1-1.487.088c-1.09-.147-1.665-.855-1.895-1.901-.324.256-.617.51-.932.735-1.15.828-2.405 1.355-3.877 1.377-1.402.02-2.912-.79-3.014-2.628-.306.279-.566.547-.858.777-.538.423-1.062.875-1.65 1.225-1.339.797-3.596.739-4.196-1.496-.392.298-.767.593-1.153.872-.873.63-1.826 1.054-2.94 1.099-1.308.053-2.254-.671-2.466-1.926-.012-.069-.018-.138-.031-.236-.461.354-.878.704-1.326 1.011-1.172.804-2.446 1.316-3.922 1.222-1.478-.094-2.384-.99-2.471-2.417-.062-1.012.18-1.957.627-2.852 1.477-2.965 3.671-5.272 6.74-6.748a6.444 6.444 0 0 1 3.256-.63c.85.055 1.552.336 1.967 1.107.046.085.112.161.21.3.273-.409.524-.777.764-1.151.11-.171.21-.231.455-.208.827.078 1.66.092 2.493.13-.357.616-.75 1.297-1.145 1.976l-5.036 8.655c-.32.55-.218.965.3 1.118.184.055.415.043.603-.009 1.535-.423 2.665-1.365 3.397-2.7 2.865-5.233 5.696-10.483 8.54-15.727.256-.474.493-.957.756-1.428.049-.087.196-.206.264-.189.91.232 1.808.135 2.767-.106l-1.377 2.606c-2.44 4.591-4.88 9.183-7.318 13.775-.43.808-.853 1.618-1.272 2.431a1.86 1.86 0 0 0-.2.52c-.107.63.427 1.065 1.029.8 1.393-.612 2.517-1.543 3.304-2.821.147-.24.2-.535.278-.81.371-1.297 1.098-2.408 1.943-3.452 1.398-1.726 3.043-3.182 5.102-4.148 1.092-.512 2.232-.82 3.466-.702.833.08 1.408.494 1.78 1.203.044.085.099.165.178.295.278-.42.525-.811.797-1.186.062-.086.227-.18.315-.159.86.214 1.721.273 2.65.017-.076.15-.119.246-.172.338a9534.939 9534.939 0 0 1-5.92 10.31c-.17.293-.348.59-.07.89.262.282.612.344.99.227 1.012-.31 1.802-.95 2.557-1.63a5.389 5.389 0 0 0 1.54-2.323c.644-1.886 1.85-3.461 3.259-4.889 1.087-1.1 2.303-2.034 3.79-2.583.762-.282 1.551-.46 2.379-.345.725.101 1.061.453 1.124 1.158a2.709 2.709 0 0 1-.296 1.52 5.16 5.16 0 0 1-1.42 1.704c-.217.17-.462.34-.772.185-.328-.165-.366-.458-.345-.77.078-1.087.622-1.935 1.48-2.601.244-.189.555-.295.842-.443-.132-.343-.433-.488-.94-.395-.62.113-1.116.458-1.553.865-2.473 2.304-4.287 5.014-5.294 8.204a2.777 2.777 0 0 0 .034 1.837c.233.631.691.904 1.371.815 1.617-.213 2.892-1.054 4.059-2.084.614-.543 1.06-1.197 1.458-1.91 1.472-2.638 2.988-5.254 4.488-7.878.024-.043.06-.079.098-.127.874.357 1.768.186 2.704.096-.054.122-.09.22-.141.311-1.895 3.478-3.792 6.955-5.683 10.434-.087.16-.161.347-.168.523-.014.422.386.733.777.557.53-.238 1.062-.517 1.511-.874a11.394 11.394 0 0 0 1.608-1.555c.34-.404.586-.901.794-1.39.679-1.594 1.654-3.007 2.77-4.334.94-1.116 1.988-2.125 3.27-2.881.882-.52 1.819-.876 2.871-.873 1.266.004 1.913.595 1.946 1.823.03 1.1-.251 2.15-.662 3.163-.31.763-.676 1.504-1.017 2.255-.04.088-.076.177-.124.287 1.457-.178 2.506-1.092 3.641-1.838l.091.124c-.116.139-.217.292-.35.414-.991.906-2.112 1.579-3.483 1.811a.814.814 0 0 0-.45.286c-1.016 1.282-2.107 2.5-3.533 3.366a7.143 7.143 0 0 1-1.893.795c-1.17.303-2.192-.139-2.777-1.17-.283-.5-.426-1.075-.61-1.559zm46.378-9.83v-.776c1.025 0 2.028-.033 3.028.014.525.025.802-.155 1.06-.582 1.91-3.151 3.975-6.204 6.324-9.067 1.917-2.337 4.173-4.34 6.664-6.096.13-.092.257-.186.455-.33-.847.164-1.599.322-2.355.452-2.258.388-4.487.197-6.694-.348-1.373-.338-2.743-.725-4.178-.627-2.954.201-5.385 1.297-6.82 3.942-.93 1.717-.245 3.715 1.585 4.504 2.767 1.193 5.388.884 7.803-.914.989-.737 1.81-1.627 2.566-2.578a.743.743 0 0 1 .309-.253c-.067.134-.12.278-.204.402-1.498 2.184-3.449 3.781-6.2 4.193-1.6.24-3.191.066-4.657-.689-1.904-.98-2.205-2.953-1.665-4.36.777-2.027 2.352-3.318 4.354-4.16 1.794-.753 3.665-.953 5.593-.636 1.293.212 2.579.47 3.878.637 3.789.485 7.441.042 10.895-1.614.067-.032.135-.06.28-.126-5.958 5.008-10.009 11.183-12.947 18.187 1.058 0 2.047-.038 3.03.014.592.032.91-.193 1.244-.64 1.983-2.654 3.934-5.335 6.033-7.903 1.555-1.903 3.27-3.688 5-5.449 1.48-1.508 3.076-2.914 4.993-3.916.4-.208.834-.358 1.265-.506-4.158 3.543-12.232 15.716-13.082 18.343h1.506v.782c-.56 0-1.11-.013-1.657.01-.129.006-.318.108-.368.215-1.328 2.83-2.69 5.651-3.679 8.614-.42 1.26-.741 2.56-.981 3.864-.108.586.019 1.245.175 1.837.226.857 1.19 1.362 2.084 1.192.927-.176 1.734-.61 2.51-1.112.163-.106.338-.195.57-.327-.032.115-.031.156-.052.176-2.152 2.157-5.1 2.531-7.353.51-1.054-.944-1.538-2.187-1.798-3.52-.438-2.24-.008-4.372.995-6.387.778-1.567 1.693-3.07 2.548-4.602.065-.118.133-.233.246-.43-.574 0-1.07-.003-1.566.002-.553.006-1.108.04-1.66.026-.286-.008-.426.078-.548.335-1.332 2.816-2.877 5.521-4.919 7.916-2.804 3.288-6.134 5.947-10.325 7.424-2.962 1.045-6.007 1.21-9.064.354a8.318 8.318 0 0 1-3.066-1.609 3.282 3.282 0 0 1-.252-.232c-.033-.034-.051-.083-.026-.206.15.085.31.154.446.255a8.923 8.923 0 0 0 3.87 1.668c2.59.459 4.924-.072 7.058-1.544 2.05-1.413 3.696-3.204 5.195-5.135 2.054-2.648 3.72-5.526 5.34-8.432.133-.24.27-.476.433-.761h-3.219zM44.34 16.299c-.237-.101-.465-.213-.703-.299-1.06-.383-2.173-.508-3.292-.566-2.383-.123-4.622.418-6.745 1.436-2.965 1.421-5.381 3.484-7.4 5.995-.92 1.143-1.745 2.344-2.236 3.731-.092.261-.067.464.12.683 2.319 2.713 2.912 5.797 2.11 9.185-.871 3.675-2.82 6.706-5.822 9.1-1.47 1.172-3.073 2.133-4.901 2.704-.168.053-.346.072-.52.106l-.04-.118c.125-.059.248-.127.378-.176 1.818-.687 3.475-1.623 4.876-2.951 2.457-2.33 3.964-5.176 4.856-8.36.68-2.43.635-4.825-.337-7.174-.263-.634-.625-1.229-.94-1.842-.046.01-.092.02-.137.028-.08.7-.206 1.397-.23 2.098-.023.716-.013 1.446.103 2.152.11.671.376 1.32.574 1.978l-.106.04c-.138-.288-.3-.566-.409-.863-.647-1.754-.605-3.553-.264-5.345.1-.524-.053-.813-.445-1.095-1.546-1.11-3.283-1.745-5.203-1.725-3.493.035-6.537 1.258-9.098 3.54-2.239 1.995-3.843 4.442-5.134 7.085-.737 1.509-1.426 3.043-1.557 4.736-.115 1.488-.265 2.977.108 4.46.506 2.018 1.43 3.801 3.151 5.09 2.82 2.108 6.087 2.598 9.51 2.153 2.475-.321 4.635-1.455 6.584-2.942 1.873-1.429 3.303-3.245 4.668-5.108 2.19-2.989 3.832-6.273 5.461-9.562 1.613-3.254 3.24-6.5 5.218-9.567 2.103-3.264 4.7-6.105 7.802-8.607m6.41-.335c-1.78-1.291-3.89-1.237-5.164.134 2.714 1.8 4.57 4.143 4.693 7.44.083 2.223-.634 4.242-2.09 5.992-2.754 3.307-7.976 3.95-9.914 2.793.524.089 1.12.241 1.727.282 2.345.156 4.2-.793 5.686-2.48 1.52-1.727 2.306-3.769 2.69-5.982.247-1.419.212-2.806-.41-4.134-.6-1.284-1.5-2.342-2.677-3.182-.244-.175-.44-.187-.614.06-.733 1.035-1.537 2.031-2.176 3.118-1.899 3.23-3.327 6.67-4.732 10.12-1.252 3.077-2.49 6.164-3.894 9.176-1.955 4.196-4.843 7.687-8.902 10.187-2.742 1.69-5.743 2.705-8.95 3.18-1.701.25-3.401.365-5.117.15-4.216-.53-7.408-2.552-9.4-6.19-2.01-3.673-1.913-7.502-.265-11.22 2.61-5.884 7.315-9.39 13.791-10.65 2.996-.583 5.747.067 8.245 1.753.072.049.148.091.215.132.306-.655.55-1.327.913-1.934 2.504-4.186 5.901-7.464 10.618-9.232 3.252-1.218 6.566-1.198 9.815.178.138.059.377.023.512-.058.942-.569 1.949-.897 3.069-.854.88.033 1.607.398 2.229.983a.536.536 0 0 1 .09.12c.01.018.005.045.012.118m106.367 25.45c.077.031.133.064.195.077.087.018.178.022.267.03 1.692.145 3.044-.571 4.26-1.598.684-.578 1.278-1.24 1.553-2.1.272-.848-.393-1.524-1.275-1.274-.5.14-1.004.336-1.438.61-1.571.992-2.671 2.387-3.483 4.006-.038.074-.052.16-.079.249m28.925 2.89c-.244-.142-.445-.248-.636-.371-.356-.23-.616-.53-.66-.96-.14-1.324.252-2.482 1.206-3.443.335-.337.774-.508 1.266-.401.21.046.397.182.634.296.051-.462.114-.892.145-1.324.038-.532-.059-1.04-.56-1.35-.509-.317-1.073-.25-1.531.06-.563.382-1.129.803-1.56 1.313-1.9 2.244-3.117 4.842-3.998 7.592a8.71 8.71 0 0 0-.374 2.007c-.047.647.403 1.01 1.063.892a3.805 3.805 0 0 0 1.247-.459c1.593-.947 2.725-2.325 3.758-3.852M152.89 46.4c-.37.398-.681.798-1.061 1.122-.556.475-1.134.939-1.756 1.327-.587.366-1.265.47-1.968.298-1.292-.316-2.048-1.527-1.572-2.733.499-1.262 1.1-2.49 1.718-3.704 1.012-1.985 2.079-3.945 3.112-5.92.13-.25.258-.346.561-.255.815.248 1.649.198 2.55.034-.462.877-.89 1.693-1.322 2.509-1.52 2.88-3.043 5.76-4.562 8.64-.13.249-.253.522-.019.764.243.25.562.289.892.173.899-.316 1.573-.934 2.225-1.575.633-.622 1.046-1.327 1.238-2.222.425-1.97 1.507-3.635 2.906-5.107 1.485-1.562 3.198-2.806 5.294-3.515a3.71 3.71 0 0 1 1.826-.134c.931.154 1.525.926 1.434 1.832-.13 1.3-.755 2.32-1.9 3.009-1.753 1.056-3.668 1.36-5.743 1.062-.906 1.587-1.426 3.285-1.174 5.153.173 1.282 1.189 1.616 2.262 1.342.899-.228 1.607-.787 2.249-1.404 2.658-2.552 4.615-5.559 6.081-8.878.18-.41.226-.736-.107-1.149-.575-.714-.481-1.649.117-2.342.226-.263.518-.409.884-.343.356.065.432.359.514.635.16.548.055 1.055-.252 1.538-.079.123-.096.284-.141.428.169.013.346.065.505.034.453-.089.894-.236 1.348-.313.666-.113 1.26.03 1.676.593.404.546.383 1.13.07 1.692-1.151 2.07-2.33 4.125-3.484 6.194-.475.853-.985 1.695-1.126 2.681-.088.623.303.977.893.701.53-.248 1.074-.587 1.442-1.022a37.523 37.523 0 0 0 2.442-3.215c1.3-1.917 2.435-3.922 3.18-6.116.152-.45.144-.79-.176-1.19-.62-.778-.516-1.706.2-2.404a1.52 1.52 0 0 1 .515-.315c.396-.149.691-.005.801.396.175.632.182 1.251-.202 1.835-.072.11-.065.268-.094.405.155.015.317.064.465.04.63-.1 1.254-.3 1.883-.316.816-.018 1.254.48 1.304 1.273.057.904-.336 1.688-.777 2.427-1.04 1.746-2.142 3.459-3.208 5.191-.342.555-.67 1.12-.966 1.7-.21.409-.372.904.014 1.256.407.37.922.12 1.275-.14.754-.555 1.449-1.186 2.161-1.792a.352.352 0 0 0 .102-.23c.108-1.94.932-3.63 1.975-5.236 1.093-1.683 2.415-3.169 4.146-4.274.836-.534 1.733-.929 2.762-.953 1.368-.033 2.132.655 2.141 1.984.01 1.344-.29 2.643-.724 3.913-.215.631-.48 1.248-.734 1.901.79-.088 1.472-.395 2.1-.81.606-.398 1.185-.835 1.775-1.256l.103.114c-.164.179-.31.376-.492.534-1.065.924-2.211 1.709-3.655 1.991-.134.026-.27.173-.351.297-.846 1.277-1.798 2.463-3.022 3.426-.645.507-1.348.915-2.158 1.127-1.29.337-2.338-.004-3.13-1.046-.235-.309-.423-.651-.629-.974-.546.464-1.084.946-1.65 1.396-.504.401-1.083.673-1.744.737-1.286.122-2.111-.534-2.301-1.771-.166-1.085.138-2.075.59-3.035.844-1.792 2.061-3.357 3.258-4.933.343-.452.71-.888 1.02-1.36.104-.158.122-.42.065-.602-.023-.073-.354-.087-.54-.074-.484.037-.965.104-1.45.159-1.132 3.114-2.74 6.033-4.717 8.764-.673.931-1.418 1.807-2.377 2.487-.814.579-1.674.631-2.578.223-.504-.228-.786-.617-.92-1.13-.275-1.047-.064-2.05.287-3.038.627-1.766 1.709-3.283 2.814-4.786.485-.66.983-1.31 1.473-1.966.147-.197.315-.444.094-.632-.135-.115-.416-.105-.627-.09-.456.03-.91.1-1.418.16-.463 1.46-1.253 2.854-2.088 4.224-1.194 1.959-2.514 3.834-4.225 5.41a10.728 10.728 0 0 1-1.886 1.415c-2.047 1.18-4.54.357-5.502-1.766-.066-.144-.128-.289-.213-.48m-35.488-4.798c.23.069.326.11.426.124.127.017.257.02.385.016 1.782-.047 3.218-.815 4.374-2.068.408-.442.745-.99.955-1.546.243-.64-.324-1.195-1.027-1.075-.413.071-.83.186-1.21.355-1.03.462-1.802 1.236-2.464 2.102-.5.653-.935 1.354-1.44 2.092m-6.511-3.11c.013-1.189-.545-1.741-1.512-1.679-.345.023-.73.128-1.008.318-.616.421-1.228.871-1.748 1.396-1.552 1.566-2.749 3.382-3.776 5.3-.578 1.082-1.137 2.184-1.293 3.413-.128 1.015.51 1.793 1.614 1.54.31-.072.622-.159.913-.284.872-.375 1.589-.962 2.244-1.62 2.03-2.04 3.352-4.478 4.238-7.152.16-.482.262-.982.328-1.232m.638-.223c.734-1.352 1.427-2.627 2.118-3.904 1.032-1.906 2.063-3.813 3.093-5.72.09-.168.157-.328.422-.283a6.505 6.505 0 0 0 2.493-.074c.073-.016.151-.009.276-.015-.048.115-.077.202-.12.28-3.194 5.964-6.39 11.927-9.586 17.89-.266.497-.553.987-.769 1.504-.089.213-.1.53.003.726.146.277.48.188.733.093a5.793 5.793 0 0 0 2.775-2.173.792.792 0 0 0 .145-.454c-.097-1.8.692-3.283 1.77-4.663 1.262-1.618 2.742-3.003 4.593-3.989 1.073-.572 2.195-.853 3.442-.77 1.082.073 2.053 1.169 1.606 2.28-.54 1.341-1.545 2.215-2.844 2.803a6.791 6.791 0 0 1-4.183.48c-.289-.057-.443.011-.577.265-.697 1.322-1.212 2.692-1.222 4.197a2.94 2.94 0 0 0 .08.703c.25 1.04 1.064 1.492 2.278 1.302 1.242-.194 2.26-.8 3.185-1.58 1.127-.948 2.024-2.087 2.88-3.26.116-.16.239-.314.359-.47l.087.044c-.051.117-.09.24-.154.35-1.022 1.76-2.312 3.3-4.038 4.457-1.328.89-2.821 1.216-4.406.92-1.13-.211-1.926-.956-2.606-1.816-.046-.058-.088-.119-.145-.195-.405.346-.78.705-1.195 1.012-.397.293-.825.55-1.26.79-1.643.896-3.727-.205-3.77-1.964-.394.329-.758.657-1.147.952-.73.555-1.48 1.13-2.425 1.245-.77.093-1.577.136-2.337.016-1.497-.238-2.39-1.637-2.167-3.179.185-1.274.744-2.401 1.454-3.463 1.498-2.241 3.381-4.108 5.81-5.416.998-.538 2.053-.92 3.223-.913 1.015.006 1.635.438 1.95 1.38.06.177.104.36.176.612zM29.54 5.146c.834.373 1.653.297 2.566.035-.157.28-.273.477-.38.68-2.166 4.097-4.332 8.194-6.495 12.292-.145.276-.306.553-.386.848-.128.473.24.807.679.58.583-.301 1.176-.646 1.635-1.096.984-.965 1.885-2.01 2.82-3.021.145-.157.292-.311.49-.434-.047.094-.084.194-.143.28-1.105 1.605-2.353 3.089-3.911 4.307-.494.385-1.023.754-1.677.79-1.45.077-2.26-.804-1.962-2.29.175-.872.61-1.716 1.042-2.516 1.78-3.31 3.605-6.598 5.413-9.894l.309-.56zm123.186 29.657c.011-1.092 1.426-1.986 2.457-1.53.17.075.345.284.385.46.145.64-.168 1.144-.66 1.53-.507.397-1.093.549-1.728.292-.324-.131-.458-.379-.454-.752z"/>
</svg>
